<svg xmlns="http://www.w3.org/2000/svg" xmlns:xlink="http://www.w3.org/1999/xlink" version="1.1" x="0px" y="0px" viewBox="0 0 100 100" enable-background="new 0 0 100 100" xml:space="preserve"><path fill="#000000" d="M73.579,36.061h-5.167l-0.1-0.82c-0.001-0.011-0.009-0.021-0.011-0.032c-0.008-0.042-0.024-0.08-0.043-0.12  c-0.013-0.026-0.021-0.051-0.038-0.075c-0.006-0.008-0.007-0.018-0.014-0.026l-0.79-0.988h6.162c0.276,0,0.5-0.224,0.5-0.5  s-0.224-0.5-0.5-0.5h-6.875c-0.026,0-0.049,0.011-0.074,0.015l-1.66-2.076c-0.142-0.176-0.38-0.235-0.588-0.147l-5.043,2.159  c-0.024,0.01-0.034,0.036-0.056,0.049H42.979c-0.059,0-0.113,0.015-0.166,0.034l-1.803-2.223c-0.005-0.006-0.015-0.008-0.021-0.014  c-0.051-0.058-0.112-0.098-0.18-0.126c-0.021-0.009-0.039-0.014-0.061-0.02c-0.068-0.019-0.138-0.023-0.208-0.012  c-0.008,0.001-0.017-0.003-0.024-0.001c-0.003,0-0.004,0.003-0.007,0.003c-0.069,0.016-0.136,0.044-0.195,0.091l-2.918,2.269h-4.567  c-0.276,0-0.5,0.224-0.5,0.5s0.224,0.5,0.5,0.5h4.502l0.985,2.06h-5.487c-0.276,0-0.5,0.224-0.5,0.5s0.224,0.5,0.5,0.5h5.969  l2.056,4.169l-0.951,11.299c-0.568,0.081-0.998,0.14-1.213,0.166l-5.522-3.507c-0.144-0.092-0.327-0.104-0.482-0.03l-5.309,2.52  c-0.016,0.007-0.025,0.021-0.04,0.03c-0.042,0.025-0.083,0.052-0.116,0.09c-0.02,0.021-0.029,0.048-0.045,0.072  c-0.018,0.029-0.041,0.054-0.054,0.088c-0.002,0.005-0.001,0.011-0.003,0.016c-0.001,0.005-0.006,0.009-0.007,0.014l-1.17,3.959  c-0.03,0.103-0.027,0.212,0.01,0.313l2.066,5.66v0l0.004,0.01c0.003,0.007,0.01,0.011,0.013,0.018  c0.025,0.062,0.063,0.116,0.112,0.164c0.018,0.018,0.037,0.029,0.057,0.044c0.023,0.017,0.041,0.039,0.067,0.052l2.564,1.26  c0.015,0.007,0.031,0.005,0.046,0.011c0.021,0.007,0.036,0.021,0.057,0.026l23.982,5.849c0.039,0.01,0.079,0.014,0.118,0.014  c0.021,0,0.04-0.001,0.061-0.004c0.017-0.002,0.027-0.016,0.043-0.02c0.038-0.008,0.077-0.008,0.114-0.026l9.044-4.364  c0.012-0.005,0.016-0.019,0.026-0.026c0.051-0.029,0.084-0.074,0.122-0.12c0.03-0.036,0.064-0.063,0.083-0.106  c0.005-0.01,0.016-0.014,0.02-0.024l5.488-14.758c0.027-0.075,0.037-0.155,0.027-0.234l-1.533-12.624h5.046  c0.276,0,0.5-0.224,0.5-0.5S73.855,36.061,73.579,36.061z M64.426,31.861l2.556,3.196l-2.629,0.898l-1.325-2.258  c-0.074-0.126-0.2-0.214-0.345-0.239l-1.407-0.249L64.426,31.861z M61.144,49.586l-3.986,0.275l5.915-10.429L61.144,49.586z   M46.077,37.061h17.191l-7.074,12.474L46.077,37.061z M59.853,34.001c0.025,0,0.046-0.011,0.07-0.014l2.358,0.416l0.973,1.658  H45.363c-0.029,0-0.055,0.012-0.083,0.017l-1.685-2.076H59.853z M39.757,32.432l-0.738,2.778l-0.769-1.606L39.757,32.432z   M40.852,32.205l17.066,21.042l-3.064,14.114L39.685,36.598L40.852,32.205z M38.921,53.67c1.239-0.157,5.346-0.763,7.531-1.087  l7.217,14.638L38.134,55.621L38.921,53.67z M41.711,42.967l4.276,8.674c-1.639,0.243-3.578,0.528-5.07,0.742L41.711,42.967z   M32.864,50.179l5.085,3.228l-0.694,1.72l-8.371-3.059L32.864,50.179z M27.919,52.781l8.961,3.274l-0.662,1.641l-5.724,1.588  c-0.003,0-0.006-0.001-0.009,0c-0.012,0.002-0.02,0.009-0.031,0.011l-0.163,0.045c-0.083,0.023-0.159,0.067-0.22,0.128l-1.38,1.38  l-1.744-4.778L27.919,52.781z M29.339,61.617l0.865-0.866l0.213,1.395L29.339,61.617z M31.499,62.611l-0.376-2.463l5.6-1.554  c0.149-0.042,0.271-0.15,0.33-0.295l0.694-1.721L52.773,67.8L31.499,62.611z M55.744,67.971l3.201-14.746  c0.032-0.148-0.004-0.303-0.1-0.421l-1.579-1.947l3.881-0.268l2.377,13.627L55.744,67.971z M64.257,62.598L62.07,50.064  l2.493-13.124l2.831-0.967l1.665,13.71L64.257,62.598z"></path></svg>