<svg xmlns="http://www.w3.org/2000/svg" xmlns:xlink="http://www.w3.org/1999/xlink" version="1.1" x="0px" y="0px" viewBox="0 0 100 100" style="enable-background:new 0 0 100 100;" xml:space="preserve"><g><path d="M19,20.9L2,22.6v16.3l8.5-0.9C11.3,35.7,14.6,27.2,19,20.9z"></path><path d="M40.2,34.9c0.7-3,2.8-11.6,6.8-16.8l-15.4,1.5c1.1,6.1,0.3,13-0.3,16.2L40.2,34.9z"></path><path d="M62.1,16.6c2.3,4.4,1.6,13.7,1.4,15.9L98,28.9V13L62.1,16.6z"></path><path d="M88.9,40.6c-5.5-4.1-12.7-5-19-2.4c-3,1.2-5.8,3.1-7.3,6.2c0,0-0.3,5.8,0,10.6c0.3-0.6,0.8-1.5,1.5-2.5   c2.3,1,6.8,3,9.3,3.2c3.4,0.2,2.3-2.3,1.9-3.4c-0.4-1.1-3.6-3.4-5.9-2.3c-1.1,0.5-2.4,0.5-3.5,0.3c3-3.5,8-6.8,14.5-2.8   c9.8,6,9,12,6.5,16.3c-0.7-1-1.3-2.4-1.3-3.8c0.1-2.6-3.4-4.7-4.6-4.6c-1.2,0-4,0-2.4,3.1c1.2,2.3,4.9,5.8,6.8,7.5   c-0.1,0.1-0.2,0.3-0.3,0.4c-3.5,4.3-13,0.2-16.4-2.1c-2.5-1.7-4.5-3.2-5.5-5.5c0,0.2,0.1,0.5,0.2,0.7c0,0-3.8-7.8-2.6-17.1   c0.3-2.7,0.6-6.2,0.7-9.6l0.1,0c1-10.3-0.4-14.6-1.3-16.2c-0.1-0.2-0.3-0.4-0.5-0.6c0.5-0.8,0.8-2.2-0.2-3.6L58,14.6   c-0.6-0.3-1.2-0.6-1.9-0.8c1-1.2,2.3-2.1,2.3-2.1c-2.3-0.7-3.8,0.9-4.5,1.9c-2.2,0.3-3.6,2.1-4.7,4.2l-0.1,0   c-0.4,0.8-5,9.4-6.5,16.8l0,0c-0.1,0.3-0.1,0.6-0.2,0.9c0,0.2-0.1,0.5-0.1,0.7l0,0c-1,4.9-1.4,11-0.3,18l0.9,4.4   c0,0-3-4.8-3.3-12.9c0,0-6.2-1.2-7.7-0.3c-1.5,0.9-0.5,9,0.3,14.4c0,0-3.1-6.1-3.5-17.4c-0.1-1.8,0.1-4,0.4-6.3l0.1,0l-0.1-0.1   c1.4-9.6,1.1-14.3,0.8-16.2c-0.1-0.2-0.1-0.3-0.2-0.5c0.5-0.9,1.1-2.6,0.1-3.4l-1.2,2c-0.4-0.2-0.8-0.5-1.3-0.6   c0.9-1.2,1.9-2.4,1.9-2.4h-1.6c-1.1,0.5-2.3,1.6-3.1,2.5c-1,0.6-2.1,1.8-3.3,3.4l-0.2,0c-1.6,2.8-5.5,9.9-8.4,17.1l0.1,0   C10.8,43.5,9.4,49.8,9.3,56C8.7,75.1,20,88.7,37.7,88.4c11.7-0.2,21.8-1.2,29.6-5.2l-1.1,3c6.8-3.1,11.2-11.8,11.2-11.8   s2.8-0.1,6.2-1.5c-0.8,1.8-2.7,3.4-2.7,3.4c5.3-1.4,8.3-5.5,9.7-8.1c1-1.1,2-2.4,2.8-4C95.6,60.1,99,48.1,88.9,40.6z M71,51.4   c0.5,0,0.9,0.4,0.9,0.9c0,0.5-0.4,0.9-0.9,0.9c-0.5,0-0.9-0.4-0.9-0.9C70.1,51.8,70.5,51.4,71,51.4z M82.5,60.2   c-0.5,0-0.9-0.4-0.9-0.9c0-0.5,0.4-0.9,0.9-0.9s0.9,0.4,0.9,0.9C83.4,59.8,83,60.2,82.5,60.2z"></path><path d="M69,59.7c0,0-1,2.3,2.6,4.5c3.6,2.2,5.5,0.3,5.5,0.3c-1.6-0.1-3.2-1-5.5-2.5C69.3,60.6,69,59.7,69,59.7z"></path><path d="M76.2,60.3c0-2-0.6-2.6-0.6-2.6s-0.8,0-1.9,0.5c-0.3,0.1-1.5,0.6-1.2,1.3C73,60.1,76.2,62.3,76.2,60.3z"></path></g></svg>